<?xml version="1.0" encoding="utf-8"?>
<!-- Generator: Adobe Illustrator 17.1.0, SVG Export Plug-In . SVG Version: 6.00 Build 0)  -->
<!DOCTYPE svg PUBLIC "-//W3C//DTD SVG 1.1//EN" "http://www.w3.org/Graphics/SVG/1.1/DTD/svg11.dtd">
<svg version="1.1" id="Layer_1" xmlns="http://www.w3.org/2000/svg" xmlns:xlink="http://www.w3.org/1999/xlink" x="0px" y="0px"
	 viewBox="0 0 400 400" enable-background="new 0 0 400 400" xml:space="preserve">
<linearGradient id="SVGID_1_" gradientUnits="userSpaceOnUse" x1="106.8777" y1="210.5788" x2="284.1126" y2="210.5788">
	<stop  offset="0" style="stop-color:#E99C00"/>
	<stop  offset="0.1701" style="stop-color:#6AFF6F"/>
	<stop  offset="0.3564" style="stop-color:#3F8CFF"/>
	<stop  offset="0.5766" style="stop-color:#F6FF00"/>
	<stop  offset="1" style="stop-color:#000000"/>
</linearGradient>
<path fill="#050505" stroke="url(#SVGID_1_)" stroke-miterlimit="10" d="M283.2,211.7c0,19.2,0.9,38.5-0.2,57.6
	c-2.4,41.6-41,73.8-87.1,73.8c-47.9,0-86.9-32.8-88-75.6c-1-38.4-0.9-76.9,0.1-115.3c1-42.4,37.6-73.5,85.5-74.2
	c49.4-0.7,87.3,30,89.4,73.5C284,171.6,283.2,191.6,283.2,211.7z"/>
<linearGradient id="SVGID_2_" gradientUnits="userSpaceOnUse" x1="70.1533" y1="131.9474" x2="323.4698" y2="131.9474">
	<stop  offset="0" style="stop-color:#E99C00"/>
	<stop  offset="0.1701" style="stop-color:#6AFF6F"/>
	<stop  offset="0.3564" style="stop-color:#3F8CFF"/>
	<stop  offset="0.5766" style="stop-color:#F6FF00"/>
	<stop  offset="1" style="stop-color:#000000"/>
</linearGradient>
<path fill="#020202" stroke="url(#SVGID_2_)" stroke-miterlimit="10" d="M153.7,74.1c-20.9,9.9-37.1,24.7-47.9,45.4
	c-1.1,2-3.2,3.4-4.6,5.3c-1,1.2-2.2,2.7-2.3,4.1c-0.5,5.5-0.7,11-0.8,16.5c-0.3,18.6-0.5,37.2-0.7,55.8c-0.1,5,0.1,10.1,0,15.1
	c-0.2,7.1-5.4,10.3-12,7.5c-15.3-6.4-19.9-30.2-7.7-42.4c3.4-3.4,4.6-6.6,4.3-11.2c-0.4-5.8-0.1-11.6-0.1-16.1
	c1.4-1,2.6-1.9,3.7-2.7c3.2-2.2,4.8-5.6,3.1-7.9c0,0,0,0,0-0.1c-4.7-3.4-5.4-7.7-4-13.3c4.4-17.2,11.8-32.7,22.8-46.6
	c1.5-1.9,1.6-4.8,2.6-7.1c1.3-3.1,2.3-6.6,4.5-9.1c8-9.5,19.1-14.5,30.4-18.7c39.7-14.7,78.7-13,116.6,5.9c6.5,3.2,12.3,8,17.5,13.1
	c2.5,2.4,2.9,7.1,4.2,10.8c0.5,1.4,0.7,3,1.5,4c20.7,24.9,28.3,53.8,26.6,85.6c-0.3,5.4,0.6,9.5,4.9,13.8
	c11.7,11.8,7.2,34.9-7.5,41.7c-7.5,3.5-12.8,0.2-12.9-8c-0.1-17.8-0.7-35.7,0.1-53.5c2-45.4-28.5-77.2-62.9-90.6
	c-17.7-6.9-36-8.8-54.8-5.4L153.7,74.1z"/>
<g>
	
		<image overflow="visible" width="245" height="125" xlink:href="CF4C074707DE1351.png"  transform="matrix(1 0 0 1 72.8289 146.4668)">
	</image>
</g>
</svg>
